<svg width="488" height="2248" viewBox="0 0 488 2248" fill="none" xmlns="http://www.w3.org/2000/svg">
<path d="M220.549 2C211.875 4.36788 193.792 29.6271 188.522 39.0424C180.262 53.8003 170.248 62.6605 159.822 74.5519C135.692 102.076 111.063 127.805 88.0733 156.045C44.0388 210.136 3.78461 321.394 55.0064 387.24C74.2619 411.994 83.0568 420.893 110.534 430.158C128.533 436.228 145.725 445.612 163.982 450.596C174.945 453.588 185.466 452.057 196.009 457.238C214.251 466.201 238.609 469.794 258.191 473.332C287.536 478.633 315.417 491.962 342.626 506.287C374.831 523.241 403.058 558.705 431.013 584.459C449.139 601.159 467.236 625.082 476.766 650.624C514.628 752.098 427.132 855.741 375.693 919.628C319.572 989.334 246.458 1020.61 185.195 1081.08C125.103 1140.4 53.4512 1167.44 14.6606 1254.8C-13.3515 1317.88 7.69739 1383.65 52.5108 1424.94C74.4257 1445.13 106.84 1457.54 132.787 1466.83C194.606 1488.98 258.294 1523.38 315.383 1559.82C335.593 1572.73 356.382 1585.18 376.109 1599.16C383.01 1604.05 384.793 1615.12 389.211 1622.92C402.286 1646.01 408.837 1672.64 416.871 1698.8C422.265 1716.35 434.512 1727.62 439.332 1747.08C445.676 1772.68 442.503 1808.36 441.203 1834.7C436.643 1927.13 409.227 2016.54 394.619 2106.26C389.67 2136.65 382.813 2168.96 381.517 2200.02C381.017 2211.99 380.558 2237.98 374.03 2246" stroke="black" stroke-width="3" stroke-linecap="round" stroke-dasharray="15 15"/>
</svg>
